#N canvas 79 22 764 741 10;
#X obj 215 261 line~;
#X obj 195 290 *~;
#X msg 215 237 \$1 200;
#N canvas 759 224 450 300 limitit 0;
#X obj 113 158 *~;
#X obj 88 132 z~ 64;
#X obj 128 131 limiter~ 10;
#X obj 99 84 +~;
#X obj 66 40 inlet~;
#X obj 140 39 inlet~;
#X obj 113 199 outlet~;
#X connect 0 0 6 0;
#X connect 1 0 0 0;
#X connect 2 0 0 1;
#X connect 3 0 1 0;
#X connect 3 0 2 0;
#X connect 4 0 3 0;
#X connect 5 0 3 1;
#X restore 141 315 pd limitit;
#X obj 62 42 inlet~;
#X obj 56 629 outlet~;
#X obj 102 124 tgl 15 0 empty empty empty 17 7 0 10 -262144 -1 -1 0
1;
#X obj 168 127 knob 32 32 0 1.05 0 0 empty empty feedback 0 -8 0 8
-262144 -1 -1 0 1;
#X obj 127 127 knob 32 32 25 2000 0 0 empty empty delay 0 -8 0 8 -262144
-1 -1 0 1;
#X obj 120 209 line~;
#X obj 102 65 inlet;
#X obj 127 12 inlet;
#X obj 168 63 inlet;
#X obj 214 128 knob 32 32 0 1 0 0 empty empty dry/wet 0 -8 0 8 -262144
-1 -1 1550 1;
#X msg 270 70 0.5;
#X obj 274 39 loadbang;
#X obj 215 67 inlet;
#X floatatom 128 163 5 0 0 0 - - -;
#X obj 141 368 delwrite~ \$0-delLine 2000;
#X obj 92 261 vd~ \$0-delLine;
#X msg 120 189 \$1 20;
#X obj 82 444 mm-mix2~;
#X obj 58 548 mm-bypass~;
#X connect 0 0 1 1;
#X connect 1 0 3 1;
#X connect 2 0 0 0;
#X connect 3 0 18 0;
#X connect 4 0 3 0;
#X connect 4 0 21 0;
#X connect 4 0 22 0;
#X connect 6 0 22 2;
#X connect 7 0 2 0;
#X connect 8 0 17 0;
#X connect 9 0 19 0;
#X connect 10 0 6 0;
#X connect 11 0 8 0;
#X connect 12 0 7 0;
#X connect 13 0 21 2;
#X connect 14 0 13 0;
#X connect 15 0 14 0;
#X connect 16 0 13 0;
#X connect 17 0 20 0;
#X connect 19 0 1 0;
#X connect 19 0 21 1;
#X connect 20 0 9 0;
#X connect 21 0 22 1;
#X connect 22 0 5 0;
#X coords 0 -1 1 1 150 80 1 100 100;
