#N canvas 884 270 358 379 10;
#X floatatom -78 77 5 0 0 0 - - -;
#X msg -78 55 1;
#X obj -78 32 loadbang;
#X floatatom -78 133 5 0 0 0 - - -;
#X obj -78 104 -;
#X floatatom 64 67 5 0 0 0 - - -;
#X obj -124 175 *~;
#X obj -89 175 *~;
#X obj -106 207 +~;
#X obj -197 -10 inlet~;
#X obj -131 -10 inlet~;
#X obj 64 27 knob 32 32 0 1 0 0 empty empty dry/wet 0 -8 0 8 -262144
-1 -1 1550 1;
#X obj -104 308 outlet~;
#X obj 6 -28 inlet;
#X obj -104 272 *~;
#X obj -129 246 z~ 64;
#X obj -89 245 limiter~ 10;
#X obj -41 75 t b f;
#X connect 0 0 4 0;
#X connect 1 0 0 0;
#X connect 2 0 1 0;
#X connect 3 0 6 1;
#X connect 4 0 3 0;
#X connect 5 0 17 0;
#X connect 6 0 8 0;
#X connect 7 0 8 0;
#X connect 8 0 15 0;
#X connect 8 0 16 0;
#X connect 9 0 6 0;
#X connect 10 0 7 0;
#X connect 11 0 5 0;
#X connect 13 0 11 0;
#X connect 14 0 12 0;
#X connect 15 0 14 0;
#X connect 16 0 14 1;
#X connect 17 0 4 0;
#X connect 17 1 4 1;
#X connect 17 1 7 1;
#X coords 0 -1 1 1 100 90 1 0 0;
