#N canvas 539 79 444 628 10;
#X obj 62 295 overdrive~;
#X floatatom 125 174 5 0 0 0 - - -;
#X obj 61 244 *~;
#X obj 76 212 line~;
#X msg 78 186 \$1 20;
#X floatatom 164 175 5 0 0 0 - - -;
#X obj 29 153 inlet~;
#X obj 103 117 tgl 15 0 empty empty empty 17 7 0 10 -262144 -1 -1 0
1;
#X obj 31 451 outlet~;
#X obj 126 127 knob 32 32 1 8 0 0 empty empty input 0 -8 0 8 -262144
-1 -1 443 1;
#X obj 163 126 knob 32 32 1 20 0 0 empty empty overdrive 0 -8 0 8 -262144
-1 -1 653 1;
#X msg 133 306 1;
#X floatatom 132 330 5 0 0 0 - - -;
#X obj 132 279 loadbang;
#X obj 61 373 *~;
#X obj 128 388 /~;
#X obj 129 361 sig~;
#X obj 124 7 loadbang;
#X msg 125 36 2;
#X msg 174 37 5;
#X msg 164 198 \$1 20;
#X obj 162 224 line;
#X obj 87 63 inlet;
#X obj 129 79 inlet;
#X obj 175 79 inlet;
#X obj 28 407 mm-bypass~;
#X connect 0 0 14 0;
#X connect 1 0 4 0;
#X connect 2 0 0 0;
#X connect 3 0 2 1;
#X connect 3 0 15 1;
#X connect 4 0 3 0;
#X connect 5 0 20 0;
#X connect 6 0 2 0;
#X connect 6 0 25 0;
#X connect 7 0 25 2;
#X connect 9 0 1 0;
#X connect 10 0 5 0;
#X connect 11 0 12 0;
#X connect 12 0 16 0;
#X connect 13 0 11 0;
#X connect 14 0 25 1;
#X connect 15 0 14 1;
#X connect 16 0 15 0;
#X connect 17 0 18 0;
#X connect 17 0 19 0;
#X connect 18 0 9 0;
#X connect 19 0 10 0;
#X connect 20 0 21 0;
#X connect 21 0 0 0;
#X connect 22 0 7 0;
#X connect 23 0 9 0;
#X connect 24 0 10 0;
#X connect 25 0 8 0;
#X coords 0 -1 1 1 110 70 1 100 100;
