#N canvas 204 92 844 654 10;
#X obj 29 162 osc~;
#X obj 29 187 *~ 0.5;
#X obj 29 210 +~ 0.5;
#X obj -93 138 inlet~;
#X obj -92 514 outlet~;
#X obj 129 126 knob 32 32 0 15 0 0 empty empty speed 0 -8 0 8 -262144
-1 -1 1033 1;
#X floatatom -63 317 5 0 0 0 - - -;
#X msg -63 298 1;
#X obj -63 279 loadbang;
#X floatatom 176 162 5 0 0 0 - - -;
#X obj -78 378 *~;
#X obj 14 370 *~;
#X obj -60 410 +~;
#X obj 176 125 knob 32 32 0 1 0 0 empty empty depth 0 -8 0 8 -262144
-1 -1 1550 1;
#X obj 14 325 *~;
#X text 213 161 depth;
#X obj 130 77 inlet;
#X obj 177 78 inlet;
#X obj 103 120 tgl 15 0 empty empty empty 17 7 0 10 -262144 -1 -1 0
1;
#X obj -63 335 -~;
#X obj 177 223 line~;
#X msg 177 202 \$1 20;
#X obj 103 54 inlet;
#X obj 275 73 loadbang;
#X msg 276 143 5;
#X msg 318 103 0.5;
#X floatatom 130 163 5 0 0 0 - - -;
#X text 337 67 load initial speed and depth;
#X text 107 181 speed (Hz);
#X text -95 119 audio input;
#X text 220 221 dezipper when depth is changing;
#X text 77 24 1 = enabled 0 = bypass;
#X obj -92 460 mm-bypass~;
#X connect 0 0 1 0;
#X connect 1 0 2 0;
#X connect 2 0 14 1;
#X connect 3 0 10 0;
#X connect 3 0 14 0;
#X connect 3 0 32 0;
#X connect 5 0 0 0;
#X connect 6 0 19 0;
#X connect 7 0 6 0;
#X connect 8 0 7 0;
#X connect 9 0 21 0;
#X connect 10 0 12 0;
#X connect 11 0 12 0;
#X connect 12 0 32 1;
#X connect 13 0 9 0;
#X connect 14 0 11 0;
#X connect 16 0 26 0;
#X connect 17 0 13 0;
#X connect 18 0 32 2;
#X connect 19 0 10 1;
#X connect 20 0 11 1;
#X connect 20 0 19 1;
#X connect 21 0 20 0;
#X connect 22 0 18 0;
#X connect 23 0 24 0;
#X connect 23 0 25 0;
#X connect 24 0 26 0;
#X connect 25 0 13 0;
#X connect 26 0 5 0;
#X connect 32 0 4 0;
#X coords 0 -1 1 1 110 80 1 100 100;
