#N canvas 69 22 1211 703 10;
#X obj 42 336 route analog digital;
#X floatatom 312 499 5 0 0 3 a0 - -;
#X floatatom 346 521 5 0 0 3 a1 - -;
#N canvas 807 101 499 396 display 0;
#X obj 6 7 inlet;
#X obj 6 28 mapping/resample 100;
#X obj 6 50 outlet;
#X obj 54 50 inlet;
#X obj 54 71 mapping/resample 100;
#X obj 54 93 outlet;
#X obj 103 93 inlet;
#X obj 103 114 mapping/resample 100;
#X obj 103 136 outlet;
#X obj 151 136 inlet;
#X obj 151 157 mapping/resample 100;
#X obj 151 179 outlet;
#X obj 200 179 inlet;
#X obj 200 200 mapping/resample 100;
#X obj 200 222 outlet;
#X obj 247 222 inlet;
#X obj 247 243 mapping/resample 100;
#X obj 247 265 outlet;
#X obj 295 265 inlet;
#X obj 295 286 mapping/resample 100;
#X obj 295 308 outlet;
#X obj 345 308 inlet;
#X obj 345 329 mapping/resample 100;
#X obj 345 351 outlet;
#X obj 60 290 receive ARDUINO_TEST_RESET;
#X connect 0 0 1 0;
#X connect 1 0 2 0;
#X connect 3 0 4 0;
#X connect 4 0 5 0;
#X connect 6 0 7 0;
#X connect 7 0 8 0;
#X connect 9 0 10 0;
#X connect 10 0 11 0;
#X connect 12 0 13 0;
#X connect 13 0 14 0;
#X connect 15 0 16 0;
#X connect 16 0 17 0;
#X connect 18 0 19 0;
#X connect 19 0 20 0;
#X connect 21 0 22 0;
#X connect 22 0 23 0;
#X connect 24 0 22 0;
#X connect 24 0 19 0;
#X connect 24 0 16 0;
#X connect 24 0 13 0;
#X connect 24 0 10 0;
#X connect 24 0 7 0;
#X connect 24 0 4 0;
#X connect 24 0 1 0;
#X restore 312 473 pd display values without pegging the CPU;
#X text 55 441 analog inputs:;
#X obj 29 540 s A0;
#N canvas 438 345 629 386 data_filter 0;
#X obj 107 -1072 delta;
#X obj 107 -1040 max 0.5;
#X floatatom 107 -1016 5 0 0 0 - - -;
#X obj 108 -992 > 0.5;
#X obj 105 -913 gate 2;
#X obj 109 -965 + 1;
#X floatatom 107 -941 5 0 0 0 - - -;
#X obj 108 -1108 inlet;
#X obj 104 -877 outlet;
#X obj 165 -1074 delta;
#X obj 165 -1042 max 0.5;
#X floatatom 165 -1018 5 0 0 0 - - -;
#X obj 166 -994 > 0.5;
#X obj 163 -915 gate 2;
#X obj 167 -967 + 1;
#X floatatom 165 -943 5 0 0 0 - - -;
#X obj 166 -1110 inlet;
#X obj 162 -879 outlet;
#X obj 216 -1073 delta;
#X obj 216 -1041 max 0.5;
#X floatatom 216 -1017 5 0 0 0 - - -;
#X obj 217 -993 > 0.5;
#X obj 214 -914 gate 2;
#X obj 218 -966 + 1;
#X floatatom 216 -942 5 0 0 0 - - -;
#X obj 217 -1109 inlet;
#X obj 213 -878 outlet;
#X obj 274 -1075 delta;
#X obj 274 -1043 max 0.5;
#X floatatom 274 -1019 5 0 0 0 - - -;
#X obj 275 -995 > 0.5;
#X obj 272 -916 gate 2;
#X obj 276 -968 + 1;
#X floatatom 274 -944 5 0 0 0 - - -;
#X obj 275 -1111 inlet;
#X obj 271 -880 outlet;
#X obj 335 -1072 delta;
#X obj 335 -1040 max 0.5;
#X floatatom 335 -1016 5 0 0 0 - - -;
#X obj 336 -992 > 0.5;
#X obj 333 -913 gate 2;
#X obj 337 -965 + 1;
#X floatatom 335 -941 5 0 0 0 - - -;
#X obj 336 -1108 inlet;
#X obj 332 -877 outlet;
#X obj 393 -1074 delta;
#X obj 393 -1042 max 0.5;
#X floatatom 393 -1018 5 0 0 0 - - -;
#X obj 394 -994 > 0.5;
#X obj 391 -915 gate 2;
#X obj 395 -967 + 1;
#X floatatom 393 -943 5 0 0 0 - - -;
#X obj 394 -1110 inlet;
#X obj 390 -879 outlet;
#X obj 444 -1073 delta;
#X obj 444 -1041 max 0.5;
#X floatatom 444 -1017 5 0 0 0 - - -;
#X obj 445 -993 > 0.5;
#X obj 442 -914 gate 2;
#X obj 446 -966 + 1;
#X floatatom 444 -942 5 0 0 0 - - -;
#X obj 445 -1109 inlet;
#X obj 441 -878 outlet;
#X obj 502 -1075 delta;
#X obj 502 -1043 max 0.5;
#X floatatom 502 -1019 5 0 0 0 - - -;
#X obj 503 -995 > 0.5;
#X obj 500 -916 gate 2;
#X obj 504 -968 + 1;
#X floatatom 502 -944 5 0 0 0 - - -;
#X obj 503 -1111 inlet;
#X obj 499 -880 outlet;
#X connect 0 0 1 0;
#X connect 1 0 2 0;
#X connect 2 0 3 0;
#X connect 3 0 5 0;
#X connect 4 0 8 0;
#X connect 5 0 6 0;
#X connect 6 0 4 0;
#X connect 7 0 0 0;
#X connect 7 0 4 1;
#X connect 9 0 10 0;
#X connect 10 0 11 0;
#X connect 11 0 12 0;
#X connect 12 0 14 0;
#X connect 13 0 17 0;
#X connect 14 0 15 0;
#X connect 15 0 13 0;
#X connect 16 0 9 0;
#X connect 16 0 13 1;
#X connect 18 0 19 0;
#X connect 19 0 20 0;
#X connect 20 0 21 0;
#X connect 21 0 23 0;
#X connect 22 0 26 0;
#X connect 23 0 24 0;
#X connect 24 0 22 0;
#X connect 25 0 18 0;
#X connect 25 0 22 1;
#X connect 27 0 28 0;
#X connect 28 0 29 0;
#X connect 29 0 30 0;
#X connect 30 0 32 0;
#X connect 31 0 35 0;
#X connect 32 0 33 0;
#X connect 33 0 31 0;
#X connect 34 0 27 0;
#X connect 34 0 31 1;
#X connect 36 0 37 0;
#X connect 37 0 38 0;
#X connect 38 0 39 0;
#X connect 39 0 41 0;
#X connect 40 0 44 0;
#X connect 41 0 42 0;
#X connect 42 0 40 0;
#X connect 43 0 36 0;
#X connect 43 0 40 1;
#X connect 45 0 46 0;
#X connect 46 0 47 0;
#X connect 47 0 48 0;
#X connect 48 0 50 0;
#X connect 49 0 53 0;
#X connect 50 0 51 0;
#X connect 51 0 49 0;
#X connect 52 0 45 0;
#X connect 52 0 49 1;
#X connect 54 0 55 0;
#X connect 55 0 56 0;
#X connect 56 0 57 0;
#X connect 57 0 59 0;
#X connect 58 0 62 0;
#X connect 59 0 60 0;
#X connect 60 0 58 0;
#X connect 61 0 54 0;
#X connect 61 0 58 1;
#X connect 63 0 64 0;
#X connect 64 0 65 0;
#X connect 65 0 66 0;
#X connect 66 0 68 0;
#X connect 67 0 71 0;
#X connect 68 0 69 0;
#X connect 69 0 67 0;
#X connect 70 0 63 0;
#X connect 70 0 67 1;
#X restore 43 490 pd data_filter;
#X obj 130 391 s D2;
#X obj 146 414 s D3;
#X obj 61 540 s A1;
#X floatatom 555 517 5 0 0 3 a7 - -;
#X obj 43 460 route 0 1 2 3 4 5 6 7;
#X floatatom 380 499 5 0 0 3 a2 - -;
#X floatatom 414 520 5 0 0 3 a3 - -;
#X floatatom 450 497 5 0 0 3 a4 - -;
#X floatatom 484 519 5 0 0 3 a5 - -;
#X floatatom 520 498 5 0 0 3 a6 - -;
#X obj 383 403 r D2;
#X obj 383 433 tgl 15 0 empty empty empty 17 7 0 10 -262144 -1 -1 0
1;
#X obj 417 433 tgl 15 0 empty empty empty 17 7 0 10 -262144 -1 -1 0
1;
#X obj 417 403 r D4;
#X obj 161 392 s D4;
#X obj 177 415 s D5;
#X obj 192 392 s D6;
#X obj 207 415 s D7;
#X obj 318 220 pipe 1000;
#X obj 318 201 t b;
#X obj 93 540 s A2;
#X obj 126 540 s A3;
#X obj 159 538 s A4;
#X obj 194 539 s A5;
#X obj 226 537 s A6;
#X obj 259 537 s A7;
#X obj 21 27 pduino/arduino 2;
#X obj 21 5 r \$0-toArduino;
#N canvas 821 130 655 347 auto-open 0;
#X obj 93 36 route version retrying;
#X msg 94 63 0;
#X msg 156 67 1;
#X msg 188 108 0;
#X msg 181 242 version;
#X obj 181 265 s \$0-toArduino;
#X obj 167 189 t b;
#X obj 94 12 inlet;
#X obj 122 89 tgl 15 0 empty empty empty 17 7 0 10 -262144 -1 -1 0
1;
#X obj 293 206 outlet;
#X obj 137 3 inlet;
#X msg 264 175 1;
#X msg 275 152 0;
#X obj 78 235 outlet;
#X obj 177 216 del 300;
#X obj 80 195 + 1;
#X obj 122 108 metro 4000;
#X obj 150 152 counter 3;
#X connect 0 0 1 0;
#X connect 0 1 2 0;
#X connect 1 0 8 0;
#X connect 1 0 11 0;
#X connect 2 0 8 0;
#X connect 2 0 3 0;
#X connect 2 0 12 0;
#X connect 3 0 17 3;
#X connect 4 0 5 0;
#X connect 6 0 14 0;
#X connect 7 0 0 0;
#X connect 8 0 16 0;
#X connect 10 0 8 0;
#X connect 10 0 3 0;
#X connect 11 0 9 0;
#X connect 12 0 9 0;
#X connect 14 0 4 0;
#X connect 15 0 13 0;
#X connect 16 0 17 0;
#X connect 17 0 6 0;
#X connect 17 0 15 0;
#X restore 114 59 pd auto-open;
#X obj 190 155 tgl 25 0 empty empty connected 0 32 0 10 -176094 -13381
-1 1 1;
#X obj 159 154 bng 25 250 50 0 empty empty scan 0 32 0 10 -262144 -1
-1;
#N canvas 146 163 525 433 serin 0;
#X obj 180 61 cnv 15 15 15 empty \$0-number-canvas 4 4 8 0 14 -233017
-1 0;
#X obj 200 225 s \$0-number-canvas;
#X obj 60 61 hradio 15 1 1 8 empty empty empty 0 -6 0 8 -225271 -1
-1 4;
#X obj 60 13 inlet;
#X msg 200 202 label \$1;
#X obj 200 180 makefilename %d;
#X obj 59 108 int;
#X msg 59 206 open \$1;
#X obj 59 377 outlet;
#X msg 201 306 set \$1 \$2;
#X obj 59 266 trigger bang anything;
#X obj 201 286 list;
#X obj 383 383 outlet;
#X obj 384 22 netreceive 34567;
#X obj 477 43 tgl 15 0 empty empty empty 0 -6 0 10 -262144 -1 -1 0
1;
#X obj 384 41 bng 15 250 50 0 empty empty empty 0 -6 0 10 -262144 -1
-1;
#X obj 187 24 delay 15000;
#X text 345 379 close;
#X text 209 4 for open/close automation in Makefile;
#X obj 184 95 bang;
#X obj 184 137 send ARDUINO_TEST_RESET;
#X msg 184 116 set 0;
#X connect 2 0 6 0;
#X connect 2 0 19 0;
#X connect 3 0 2 0;
#X connect 4 0 1 0;
#X connect 5 0 4 0;
#X connect 6 0 5 0;
#X connect 6 0 7 0;
#X connect 7 0 10 0;
#X connect 9 0 8 0;
#X connect 10 0 8 0;
#X connect 10 1 11 0;
#X connect 11 0 9 0;
#X connect 13 0 15 0;
#X connect 13 1 14 0;
#X connect 15 0 16 0;
#X connect 15 0 12 0;
#X connect 16 0 2 0;
#X connect 19 0 21 0;
#X connect 21 0 20 0;
#X coords 0 -1 1 1 136 17 1 60 60;
#X restore 102 129 pd serin;
#X text 102 112 serial port #;
#X obj 220 37 loadbang;
#X text 104 -48 ON;
#X msg 47 -53 \; pd dsp 1;
#X obj 47 -103 loadbang;
#X obj 102 190 pddp/dsp;
#X msg 45 173 open 4;
#X obj 110 268 s \$0-toArduino;
#X obj 102 153 bng 25 250 50 0 empty empty devices 0 32 0 10 -262144
-1 -1;
#X msg 109 245 devices;
#X obj 318 180 sel 1;
#X msg 256 160 0;
#X obj 47 -80 del 500;
#X msg 220 81 1;
#X obj 220 59 del 500;
#X obj 183 15 inlet;
#X text 184 -5 bang to scan;
#X obj 225 391 s D8;
#X obj 240 414 s D9;
#X obj 256 392 s D10;
#X obj 272 415 s D11;
#X obj 291 392 s D12;
#X obj 330 385 s D13;
#X obj 100 362 route 0 1 2 3 4 5 6 7 8 9 10 11 12 13;
#X obj 451 433 tgl 15 0 empty empty empty 17 7 0 10 -262144 -1 -1 0
1;
#X obj 486 434 tgl 15 0 empty empty empty 17 7 0 10 -262144 -1 -1 0
1;
#X msg 758 308 analog 3 \$1;
#X floatatom 758 287 5 0 0 0 - - -;
#X obj 762 -70 tgl 15 0 empty empty empty 17 7 0 10 -262144 -1 -1 0
1;
#X obj 758 265 r D3~;
#X obj 770 56 s D3~;
#X floatatom 798 -70 5 0 0 0 - - -;
#X msg 803 26 0;
#X msg 765 27 1;
#X floatatom 802 261 5 0 0 0 - - -;
#X floatatom 841 236 5 0 0 0 - - -;
#X obj 802 239 r D5~;
#X obj 841 214 r D6~;
#X obj 983 326 s \$0-toArduino;
#X msg 802 282 analog 5 \$1;
#X msg 841 257 analog 6 \$1;
#X floatatom 879 214 5 0 0 0 - - -;
#X floatatom 924 190 5 0 0 0 - - -;
#X floatatom 971 168 5 0 0 0 - - -;
#X msg 879 235 analog 9 \$1;
#X msg 924 211 analog 10 \$1;
#X msg 971 189 analog 11 \$1;
#X obj 971 146 r D11~;
#X obj 924 168 r D10~;
#X obj 879 192 r D9~;
#X obj 451 403 r D7;
#X obj 486 404 r D8;
#X obj 520 434 tgl 15 0 empty empty empty 17 7 0 10 -262144 -1 -1 0
1;
#X obj 557 435 tgl 15 0 empty empty empty 17 7 0 10 -262144 -1 -1 0
1;
#X obj 520 404 r D12;
#X obj 557 405 r D13;
#X text 992 254 Digital / PWM Outputs;
#X obj 763 -48 metro 500;
#X obj 787 2 pipe 40;
#N canvas 492 106 633 433 configure_digitalInputs 0;
#X msg 137 97 pinMode 2 input;
#X obj 123 236 s \$0-toArduino;
#X obj 107 68 bng 15 250 50 0 empty empty empty 17 7 0 10 -262144 -1
-1;
#X msg 137 119 pinMode 4 input;
#X msg 136 139 pinMode 7 input;
#X msg 136 161 pinMode 8 input;
#X msg 136 180 pinMode 12 input;
#X msg 137 202 pinMode 13 input;
#X text 128 68 digital input pins;
#X obj 106 38 inlet;
#X connect 0 0 1 0;
#X connect 2 0 0 0;
#X connect 2 0 3 0;
#X connect 2 0 4 0;
#X connect 2 0 5 0;
#X connect 2 0 6 0;
#X connect 2 0 7 0;
#X connect 3 0 1 0;
#X connect 4 0 1 0;
#X connect 5 0 1 0;
#X connect 6 0 1 0;
#X connect 7 0 1 0;
#X connect 9 0 2 0;
#X restore 378 259 pd configure_digitalInputs;
#N canvas 666 260 450 300 configure_analogInputs 0;
#X obj 109 67 inlet;
#X msg 111 120 pinMode 14 analog;
#X msg 112 139 pinMode 15 analog;
#X msg 113 159 pinMode 16 analog;
#X obj 111 98 bng 15 250 50 0 empty empty empty 17 7 0 10 -262144 -1
-1;
#X msg 116 255 pinMode 21 analog;
#X msg 114 179 pinMode 17 analog;
#X msg 115 198 pinMode 18 analog;
#X msg 115 218 pinMode 19 analog;
#X msg 115 236 pinMode 20 analog;
#X text 142 101 A0 - A7;
#X obj 112 288 s \$0-toArduino;
#X connect 0 0 4 0;
#X connect 1 0 11 0;
#X connect 2 0 11 0;
#X connect 3 0 11 0;
#X connect 4 0 1 0;
#X connect 4 0 2 0;
#X connect 4 0 3 0;
#X connect 4 0 6 0;
#X connect 4 0 7 0;
#X connect 4 0 8 0;
#X connect 4 0 9 0;
#X connect 4 0 5 0;
#X connect 5 0 11 0;
#X connect 6 0 11 0;
#X connect 7 0 11 0;
#X connect 8 0 11 0;
#X connect 9 0 11 0;
#X restore 398 239 pd configure_analogInputs;
#N canvas 255 276 770 339 configure_pwmDigitalOut 0;
#X msg 205 87 pinMode 3 pwm;
#X msg 205 107 pinMode 5 pwm;
#X msg 205 127 pinMode 6 pwm;
#X msg 205 148 pinMode 9 pwm;
#X msg 205 168 pinMode 10 pwm;
#X msg 205 188 pinMode 11 pwm;
#X obj 188 62 bng 15 250 50 0 empty empty empty 17 7 0 10 -262144 -1
-1;
#X obj 185 213 s \$0-toArduino;
#X text 212 57 pwm output pins;
#X obj 187 25 inlet;
#X connect 0 0 7 0;
#X connect 1 0 7 0;
#X connect 2 0 7 0;
#X connect 3 0 7 0;
#X connect 4 0 7 0;
#X connect 5 0 7 0;
#X connect 6 0 0 0;
#X connect 6 0 1 0;
#X connect 6 0 2 0;
#X connect 6 0 3 0;
#X connect 6 0 4 0;
#X connect 6 0 5 0;
#X connect 9 0 6 0;
#X restore 348 279 pd configure_pwmDigitalOut;
#X obj 899 -21 osc~;
#X obj 900 40 snapshot~ 20;
#X obj 899 0 *~ 0.5;
#X obj 899 19 +~ 0.5;
#X obj 901 62 s D3~;
#X floatatom 898 -41 5 0 0 0 - - -;
#X obj 972 -97 metro 20;
#X obj 944 -113 tgl 15 0 empty empty empty 17 7 0 10 -262144 -1 -1
0 1;
#X obj 990 -25 osc~;
#X obj 991 36 snapshot~ 20;
#X obj 990 -4 *~ 0.5;
#X obj 990 15 +~ 0.5;
#X floatatom 989 -45 5 0 0 0 - - -;
#X obj 992 58 s D5~;
#X obj 1078 -25 osc~;
#X obj 1079 36 snapshot~ 20;
#X obj 1078 -4 *~ 0.5;
#X obj 1078 15 +~ 0.5;
#X floatatom 1077 -45 5 0 0 0 - - -;
#X obj 1080 58 s D6~;
#X connect 0 0 11 0;
#X connect 0 1 62 0;
#X connect 3 0 1 0;
#X connect 3 1 2 0;
#X connect 3 2 12 0;
#X connect 3 3 13 0;
#X connect 3 4 14 0;
#X connect 3 5 15 0;
#X connect 3 6 16 0;
#X connect 3 7 10 0;
#X connect 6 0 5 0;
#X connect 6 1 9 0;
#X connect 6 2 27 0;
#X connect 6 3 28 0;
#X connect 6 4 29 0;
#X connect 6 5 30 0;
#X connect 6 6 31 0;
#X connect 6 7 32 0;
#X connect 11 0 3 0;
#X connect 11 0 6 0;
#X connect 11 1 3 1;
#X connect 11 1 6 1;
#X connect 11 2 3 2;
#X connect 11 2 6 2;
#X connect 11 3 3 3;
#X connect 11 3 6 3;
#X connect 11 4 3 4;
#X connect 11 4 6 4;
#X connect 11 5 3 5;
#X connect 11 5 6 5;
#X connect 11 6 3 6;
#X connect 11 6 6 6;
#X connect 11 7 3 7;
#X connect 11 7 6 7;
#X connect 17 0 18 0;
#X connect 20 0 19 0;
#X connect 25 0 99 0;
#X connect 25 0 98 0;
#X connect 25 0 100 0;
#X connect 26 0 25 0;
#X connect 33 0 0 0;
#X connect 33 1 35 0;
#X connect 34 0 33 0;
#X connect 35 0 38 0;
#X connect 35 1 36 0;
#X connect 36 0 49 0;
#X connect 37 0 35 1;
#X connect 37 0 50 0;
#X connect 38 0 45 0;
#X connect 40 0 53 0;
#X connect 43 0 51 0;
#X connect 45 0 46 0;
#X connect 47 0 48 0;
#X connect 48 0 46 0;
#X connect 49 0 26 0;
#X connect 50 0 36 0;
#X connect 51 0 42 0;
#X connect 52 0 37 0;
#X connect 53 0 52 0;
#X connect 54 0 35 1;
#X connect 62 2 7 0;
#X connect 62 3 8 0;
#X connect 62 4 21 0;
#X connect 62 5 22 0;
#X connect 62 6 23 0;
#X connect 62 7 24 0;
#X connect 62 8 56 0;
#X connect 62 9 57 0;
#X connect 62 10 58 0;
#X connect 62 11 59 0;
#X connect 62 12 60 0;
#X connect 62 13 61 0;
#X connect 65 0 77 0;
#X connect 66 0 65 0;
#X connect 67 0 96 0;
#X connect 68 0 66 0;
#X connect 70 0 96 1;
#X connect 71 0 69 0;
#X connect 72 0 69 0;
#X connect 73 0 78 0;
#X connect 74 0 79 0;
#X connect 75 0 73 0;
#X connect 76 0 74 0;
#X connect 78 0 77 0;
#X connect 79 0 77 0;
#X connect 80 0 83 0;
#X connect 81 0 84 0;
#X connect 82 0 85 0;
#X connect 83 0 77 0;
#X connect 84 0 77 0;
#X connect 85 0 77 0;
#X connect 86 0 82 0;
#X connect 87 0 81 0;
#X connect 88 0 80 0;
#X connect 89 0 63 0;
#X connect 90 0 64 0;
#X connect 93 0 91 0;
#X connect 94 0 92 0;
#X connect 96 0 72 0;
#X connect 96 0 97 0;
#X connect 97 0 71 0;
#X connect 101 0 103 0;
#X connect 102 0 105 0;
#X connect 103 0 104 0;
#X connect 104 0 102 0;
#X connect 106 0 101 0;
#X connect 107 0 102 0;
#X connect 107 0 110 0;
#X connect 107 0 116 0;
#X connect 108 0 107 0;
#X connect 109 0 111 0;
#X connect 110 0 114 0;
#X connect 111 0 112 0;
#X connect 112 0 110 0;
#X connect 113 0 109 0;
#X connect 115 0 117 0;
#X connect 116 0 120 0;
#X connect 117 0 118 0;
#X connect 118 0 116 0;
#X connect 119 0 115 0;
#X coords 0 -1 1 1 150 110 1 100 100;
